<mxfile host="app.diagrams.net" modified="2022-11-10T07:46:54.781Z" agent="5.0 (Macintosh; Intel Mac OS X 10_15_7) AppleWebKit/537.36 (KHTML, like Gecko) Chrome/107.0.0.0 Safari/537.36" etag="zpd0wS7zp458SPFt1bAn" version="20.5.3" type="github">
  <diagram id="Yu2uM2zBWsefCaGkoQr8" name="第 1 页">
    <mxGraphModel dx="1199" dy="696" grid="1" gridSize="10" guides="1" tooltips="1" connect="1" arrows="1" fold="1" page="1" pageScale="1" pageWidth="827" pageHeight="1169" math="0" shadow="0">
      <root>
        <mxCell id="0" />
        <mxCell id="1" parent="0" />
        <mxCell id="7Vx_ptKP1HFinLa8TKjH-2" value="用户" style="ellipse;whiteSpace=wrap;html=1;aspect=fixed;" vertex="1" parent="1">
          <mxGeometry x="39.5" y="80" width="80" height="80" as="geometry" />
        </mxCell>
        <mxCell id="7Vx_ptKP1HFinLa8TKjH-4" value="后端" style="ellipse;whiteSpace=wrap;html=1;aspect=fixed;" vertex="1" parent="1">
          <mxGeometry x="519.5" y="80" width="80" height="80" as="geometry" />
        </mxCell>
        <mxCell id="7Vx_ptKP1HFinLa8TKjH-5" value="" style="endArrow=none;dashed=1;html=1;dashPattern=1 3;strokeWidth=2;rounded=0;entryX=0.5;entryY=1;entryDx=0;entryDy=0;" edge="1" parent="1" target="7Vx_ptKP1HFinLa8TKjH-2">
          <mxGeometry width="50" height="50" relative="1" as="geometry">
            <mxPoint x="80" y="880" as="sourcePoint" />
            <mxPoint x="89.5" y="140" as="targetPoint" />
          </mxGeometry>
        </mxCell>
        <mxCell id="7Vx_ptKP1HFinLa8TKjH-6" value="" style="endArrow=none;dashed=1;html=1;dashPattern=1 3;strokeWidth=2;rounded=0;entryX=0.5;entryY=1;entryDx=0;entryDy=0;startArrow=none;" edge="1" parent="1" source="7Vx_ptKP1HFinLa8TKjH-3">
          <mxGeometry width="50" height="50" relative="1" as="geometry">
            <mxPoint x="299" y="1041.5" as="sourcePoint" />
            <mxPoint x="299" y="120" as="targetPoint" />
          </mxGeometry>
        </mxCell>
        <mxCell id="7Vx_ptKP1HFinLa8TKjH-7" value="" style="endArrow=none;dashed=1;html=1;dashPattern=1 3;strokeWidth=2;rounded=0;entryX=0.5;entryY=1;entryDx=0;entryDy=0;" edge="1" parent="1" target="7Vx_ptKP1HFinLa8TKjH-4">
          <mxGeometry width="50" height="50" relative="1" as="geometry">
            <mxPoint x="560" y="880" as="sourcePoint" />
            <mxPoint x="99.5" y="140" as="targetPoint" />
          </mxGeometry>
        </mxCell>
        <mxCell id="7Vx_ptKP1HFinLa8TKjH-3" value="前端" style="ellipse;whiteSpace=wrap;html=1;aspect=fixed;" vertex="1" parent="1">
          <mxGeometry x="279.5" y="80" width="80" height="80" as="geometry" />
        </mxCell>
        <mxCell id="7Vx_ptKP1HFinLa8TKjH-8" value="" style="endArrow=none;dashed=1;html=1;dashPattern=1 3;strokeWidth=2;rounded=0;entryX=0.5;entryY=1;entryDx=0;entryDy=0;" edge="1" parent="1" target="7Vx_ptKP1HFinLa8TKjH-3">
          <mxGeometry width="50" height="50" relative="1" as="geometry">
            <mxPoint x="320" y="880" as="sourcePoint" />
            <mxPoint x="299" y="120" as="targetPoint" />
          </mxGeometry>
        </mxCell>
        <mxCell id="7Vx_ptKP1HFinLa8TKjH-10" value="打开页面，点击按钮" style="text;html=1;align=center;verticalAlign=middle;resizable=0;points=[];autosize=1;strokeColor=none;fillColor=none;" vertex="1" parent="1">
          <mxGeometry x="119.5" y="210" width="130" height="30" as="geometry" />
        </mxCell>
        <mxCell id="7Vx_ptKP1HFinLa8TKjH-11" value="" style="endArrow=classic;html=1;rounded=0;" edge="1" parent="1">
          <mxGeometry width="50" height="50" relative="1" as="geometry">
            <mxPoint x="79.5" y="240" as="sourcePoint" />
            <mxPoint x="319.5" y="240" as="targetPoint" />
          </mxGeometry>
        </mxCell>
        <mxCell id="7Vx_ptKP1HFinLa8TKjH-12" value="" style="endArrow=classic;html=1;rounded=0;" edge="1" parent="1">
          <mxGeometry width="50" height="50" relative="1" as="geometry">
            <mxPoint x="319.5" y="280" as="sourcePoint" />
            <mxPoint x="559.5" y="280" as="targetPoint" />
          </mxGeometry>
        </mxCell>
        <mxCell id="7Vx_ptKP1HFinLa8TKjH-13" value="请求获取图像验证码接口&lt;br&gt;（pizza或clickword）" style="text;html=1;align=center;verticalAlign=middle;resizable=0;points=[];autosize=1;strokeColor=none;fillColor=none;" vertex="1" parent="1">
          <mxGeometry x="359.5" y="235" width="160" height="40" as="geometry" />
        </mxCell>
        <mxCell id="7Vx_ptKP1HFinLa8TKjH-14" value="" style="endArrow=classic;html=1;rounded=0;" edge="1" parent="1">
          <mxGeometry width="50" height="50" relative="1" as="geometry">
            <mxPoint x="559.5" y="360" as="sourcePoint" />
            <mxPoint x="319.5" y="360" as="targetPoint" />
          </mxGeometry>
        </mxCell>
        <mxCell id="7Vx_ptKP1HFinLa8TKjH-15" value="返回图像验证码数据给前端&lt;br&gt;（带token参数等参数）" style="text;html=1;align=center;verticalAlign=middle;resizable=0;points=[];autosize=1;strokeColor=none;fillColor=none;" vertex="1" parent="1">
          <mxGeometry x="354.5" y="325" width="170" height="40" as="geometry" />
        </mxCell>
        <mxCell id="7Vx_ptKP1HFinLa8TKjH-16" value="" style="endArrow=classic;html=1;rounded=0;" edge="1" parent="1">
          <mxGeometry width="50" height="50" relative="1" as="geometry">
            <mxPoint x="319.5" y="440" as="sourcePoint" />
            <mxPoint x="79.5" y="440" as="targetPoint" />
          </mxGeometry>
        </mxCell>
        <mxCell id="7Vx_ptKP1HFinLa8TKjH-18" value="显示图像验证码页面" style="text;html=1;align=center;verticalAlign=middle;resizable=0;points=[];autosize=1;strokeColor=none;fillColor=none;" vertex="1" parent="1">
          <mxGeometry x="129.5" y="410" width="130" height="30" as="geometry" />
        </mxCell>
        <mxCell id="7Vx_ptKP1HFinLa8TKjH-19" value="" style="endArrow=classic;html=1;rounded=0;" edge="1" parent="1">
          <mxGeometry width="50" height="50" relative="1" as="geometry">
            <mxPoint x="74.5" y="520" as="sourcePoint" />
            <mxPoint x="314.5" y="520" as="targetPoint" />
          </mxGeometry>
        </mxCell>
        <mxCell id="7Vx_ptKP1HFinLa8TKjH-20" value="滑动滑块或点击文字&lt;br&gt;（验证图像验证码）" style="text;html=1;align=center;verticalAlign=middle;resizable=0;points=[];autosize=1;strokeColor=none;fillColor=none;" vertex="1" parent="1">
          <mxGeometry x="129.5" y="480" width="130" height="40" as="geometry" />
        </mxCell>
        <mxCell id="7Vx_ptKP1HFinLa8TKjH-21" value="" style="endArrow=classic;html=1;rounded=0;" edge="1" parent="1">
          <mxGeometry width="50" height="50" relative="1" as="geometry">
            <mxPoint x="319.5" y="600" as="sourcePoint" />
            <mxPoint x="559.5" y="600" as="targetPoint" />
          </mxGeometry>
        </mxCell>
        <mxCell id="7Vx_ptKP1HFinLa8TKjH-23" value="请求验证图像验证码接口&lt;br&gt;（带token等参数）" style="text;html=1;align=center;verticalAlign=middle;resizable=0;points=[];autosize=1;strokeColor=none;fillColor=none;" vertex="1" parent="1">
          <mxGeometry x="359.5" y="565" width="160" height="40" as="geometry" />
        </mxCell>
        <mxCell id="7Vx_ptKP1HFinLa8TKjH-25" value="" style="endArrow=classic;html=1;rounded=0;" edge="1" parent="1">
          <mxGeometry width="50" height="50" relative="1" as="geometry">
            <mxPoint x="559.5" y="680" as="sourcePoint" />
            <mxPoint x="319.5" y="680" as="targetPoint" />
          </mxGeometry>
        </mxCell>
        <mxCell id="7Vx_ptKP1HFinLa8TKjH-26" value="返回验证结果给前端" style="text;html=1;align=center;verticalAlign=middle;resizable=0;points=[];autosize=1;strokeColor=none;fillColor=none;" vertex="1" parent="1">
          <mxGeometry x="373.5" y="650" width="130" height="30" as="geometry" />
        </mxCell>
        <mxCell id="7Vx_ptKP1HFinLa8TKjH-27" value="" style="endArrow=classic;html=1;rounded=0;" edge="1" parent="1">
          <mxGeometry width="50" height="50" relative="1" as="geometry">
            <mxPoint x="319.5" y="760" as="sourcePoint" />
            <mxPoint x="79.5" y="760" as="targetPoint" />
          </mxGeometry>
        </mxCell>
        <mxCell id="7Vx_ptKP1HFinLa8TKjH-28" value="显示页面结果" style="text;html=1;align=center;verticalAlign=middle;resizable=0;points=[];autosize=1;strokeColor=none;fillColor=none;" vertex="1" parent="1">
          <mxGeometry x="139.5" y="725" width="100" height="30" as="geometry" />
        </mxCell>
        <mxCell id="7Vx_ptKP1HFinLa8TKjH-29" value="第三方" style="ellipse;whiteSpace=wrap;html=1;aspect=fixed;" vertex="1" parent="1">
          <mxGeometry x="699.5" y="80" width="80" height="80" as="geometry" />
        </mxCell>
        <mxCell id="7Vx_ptKP1HFinLa8TKjH-30" value="" style="endArrow=none;dashed=1;html=1;dashPattern=1 3;strokeWidth=2;rounded=0;entryX=0.5;entryY=1;entryDx=0;entryDy=0;" edge="1" parent="1">
          <mxGeometry width="50" height="50" relative="1" as="geometry">
            <mxPoint x="746" y="880" as="sourcePoint" />
            <mxPoint x="746" y="160" as="targetPoint" />
          </mxGeometry>
        </mxCell>
        <mxCell id="7Vx_ptKP1HFinLa8TKjH-31" value="" style="endArrow=classic;startArrow=classic;html=1;rounded=0;" edge="1" parent="1">
          <mxGeometry width="50" height="50" relative="1" as="geometry">
            <mxPoint x="559.5" y="320" as="sourcePoint" />
            <mxPoint x="739.5" y="320" as="targetPoint" />
          </mxGeometry>
        </mxCell>
        <mxCell id="7Vx_ptKP1HFinLa8TKjH-32" value="" style="endArrow=classic;startArrow=classic;html=1;rounded=0;" edge="1" parent="1">
          <mxGeometry width="50" height="50" relative="1" as="geometry">
            <mxPoint x="559.5" y="640" as="sourcePoint" />
            <mxPoint x="739.5" y="640" as="targetPoint" />
          </mxGeometry>
        </mxCell>
        <mxCell id="7Vx_ptKP1HFinLa8TKjH-33" value="请求图像数据" style="text;html=1;align=center;verticalAlign=middle;resizable=0;points=[];autosize=1;strokeColor=none;fillColor=none;" vertex="1" parent="1">
          <mxGeometry x="599.5" y="285" width="100" height="30" as="geometry" />
        </mxCell>
        <mxCell id="7Vx_ptKP1HFinLa8TKjH-34" value="返回图像数据" style="text;html=1;align=center;verticalAlign=middle;resizable=0;points=[];autosize=1;strokeColor=none;fillColor=none;" vertex="1" parent="1">
          <mxGeometry x="599.5" y="330" width="100" height="30" as="geometry" />
        </mxCell>
        <mxCell id="7Vx_ptKP1HFinLa8TKjH-35" value="请求验证数据" style="text;html=1;align=center;verticalAlign=middle;resizable=0;points=[];autosize=1;strokeColor=none;fillColor=none;" vertex="1" parent="1">
          <mxGeometry x="606.5" y="605" width="100" height="30" as="geometry" />
        </mxCell>
        <mxCell id="7Vx_ptKP1HFinLa8TKjH-36" value="返回验证结果" style="text;html=1;align=center;verticalAlign=middle;resizable=0;points=[];autosize=1;strokeColor=none;fillColor=none;" vertex="1" parent="1">
          <mxGeometry x="606.5" y="650" width="100" height="30" as="geometry" />
        </mxCell>
      </root>
    </mxGraphModel>
  </diagram>
</mxfile>
